<?xml version="1.0" encoding="UTF-8"?>
<svg width="1024px" height="1024px" viewBox="0 0 1024 1024" version="1.1" xmlns="http://www.w3.org/2000/svg" xmlns:xlink="http://www.w3.org/1999/xlink">
    <!-- Generator: Sketch 55.2 (78181) - https://sketchapp.com -->
    <title>Group Copy</title>
    <desc>Created with Sketch.</desc>
    <defs>
        <linearGradient x1="99.5851825%" y1="100%" x2="0.414817486%" y2="0%" id="linearGradient-1">
            <stop stop-color="#3023AE" offset="0%"></stop>
            <stop stop-color="#C86DD7" offset="100%"></stop>
        </linearGradient>
        <path d="M353.517125,1.70863678 L659.703287,1.70863678 C761.245563,1.70863678 812.004057,1.70863678 866.665106,19.0598915 C926.341317,40.8716884 973.340547,88.0671013 995.061676,147.99241 C1012.34081,202.87316 1012.34081,253.860456 1012.34081,355.818122 L1012.34081,663.282356 C1012.34081,765.248486 1012.34081,816.218855 995.061676,871.108068 C973.340547,931.033377 926.341317,978.22879 866.665106,1000.03212 C812.004057,1017.39184 761.245563,1017.39184 659.703287,1017.39184 L353.517125,1017.39184 C251.974849,1017.39184 201.207926,1017.39184 146.555306,1000.03212 C86.8790951,978.22879 39.8798647,931.033377 18.1587355,871.108068 C0.87960671,816.218855 0.87960671,765.248486 0.87960671,663.282356 L0.87960671,355.818122 C0.87960671,253.860456 0.87960671,202.87316 18.1587355,147.99241 C39.8798647,88.0671013 86.8790951,40.8716884 146.555306,19.0598915 C201.207926,1.70863678 251.974849,1.70863678 353.517125,1.70863678 L353.517125,1.70863678" id="path-2"></path>
        <linearGradient x1="100%" y1="99.8604327%" x2="0%" y2="0.139567273%" id="linearGradient-4">
            <stop stop-color="#3023AE" offset="0%"></stop>
            <stop stop-color="#C86DD7" offset="100%"></stop>
        </linearGradient>
        <path d="M356.955005,0.870536799 L666.842624,0.870536799 C769.612434,0.870536799 820.984543,0.870536799 876.306385,18.3341268 C936.704016,40.2871372 984.271415,87.788102 1006.25513,148.101379 C1023.74314,203.337436 1023.74314,254.654834 1023.74314,357.272593 L1023.74314,666.727407 C1023.74314,769.353685 1023.74314,820.654045 1006.25513,875.898621 C984.271415,936.211898 936.704016,983.712863 876.306385,1005.65735 C820.984543,1023.12946 769.612434,1023.12946 666.842624,1023.12946 L356.955005,1023.12946 C254.185194,1023.12946 202.804554,1023.12946 147.491244,1005.65735 C87.0936129,983.712863 39.5262132,936.211898 17.5424992,875.898621 C0.0544846458,820.654045 0.0544846458,769.353685 0.0544846458,666.727407 L0.0544846458,357.272593 C0.0544846458,254.654834 0.0544846458,203.337436 17.5424992,148.101379 C39.5262132,87.788102 87.0936129,40.2871372 147.491244,18.3341268 C202.804554,0.870536799 254.185194,0.870536799 356.955005,0.870536799 L356.955005,0.870536799" id="path-5"></path>
    </defs>
    <g id="App-Icons-by-aarhcreative---Enjoy!" stroke="none" stroke-width="1" fill="none" fill-rule="evenodd">
        <g id="App-Icons-Free-Copy-2">
            <g id="Group-Copy">
                <g id="Icon-Shape" transform="translate(4.899522, 4.899522)">
                    <mask id="mask-3" fill="white">
                        <use xlink:href="#path-2"></use>
                    </mask>
                    <use id="Purple-Icon" fill="url(#linearGradient-1)" xlink:href="#path-2"></use>
                    <g id="Pattern" style="mix-blend-mode: darken;" mask="url(#mask-3)">
                        <g transform="translate(-925.677914, -39.066966)"></g>
                    </g>
                </g>
                <g id="Trifecta">
                    <g id="Icon-Shape">
                        <mask id="mask-6" fill="white">
                            <use xlink:href="#path-5"></use>
                        </mask>
                        <use id="Purple-Icon" fill="url(#linearGradient-4)" xlink:href="#path-5"></use>
                    </g>
                </g>
                <g id="Group-5" transform="translate(512.868387, 510.863711) rotate(1.000000) translate(-512.868387, -510.863711) translate(165.002359, 162.997682)" fill="#FFFFFF">
                    <path d="M221.735922,25.4640743 L250.245153,91.7964495 C287.080429,77.747895 327.458858,71.4792268 369.122855,74.77118 L377.735922,3.13510238 C322.979869,-1.66806907 269.892885,6.60994184 221.735922,25.4640743 L221.735922,25.4640743 Z" id="Path"></path>
                    <path d="M64.6634904,151.923012 C35.3975019,194.083942 15.0929076,243.342728 6.87869926,297.275299 L78.8624398,305.923012 C85.4613725,265.03587 100.864524,227.560834 122.878699,195.246334 L64.6634904,151.923012 Z" id="Path" opacity="0.800000012"></path>
                    <path d="M101.273929,467.264202 L34.3708766,495.71764 C57.1734952,543.807316 90.9781648,586.170257 132.950031,619.264202 L176.370877,561.43451 C144.621962,535.963395 118.945655,503.72738 101.273929,467.264202 L101.273929,467.264202 Z" id="Path" opacity="0.600000024"></path>
                    <path d="M445.754847,604.20355 C408.919571,618.252168 368.541142,624.518457 326.901265,621.228896 L318.264078,692.862886 C373.017719,697.670892 426.107115,689.390438 474.264078,670.536221 L445.754847,604.20355 Z" id="Path" opacity="0.400000006"></path>
                    <path d="M617.136643,390.076988 C610.537848,430.983692 595.135017,468.449826 573.121301,500.734525 L631.337714,544.076988 C660.603093,501.899138 680.907264,452.64887 689.121301,398.747418 L617.136643,390.076988 Z" id="Path" opacity="0.200000003"></path>
                    <path d="M671.333836,221.648813 L614.185337,280.729252 C620.891243,308.301895 623.394202,337.328781 621.060036,366.995824 L692.84048,375.648813 C697.588387,321.650977 689.61171,269.286146 671.333836,221.648813 L671.333836,221.648813 Z" id="Path" opacity="0.1"></path>
                    <path d="M398.747554,6.87869926 L390.076988,78.8648579 C430.984335,85.4396098 468.451058,100.842762 500.736265,122.878699 L544.076988,64.6634904 C501.922687,35.3975019 452.647433,15.0711449 398.747554,6.87869926 L398.747554,6.87869926 Z" id="Path"></path>
                    <path d="M561.408075,519.629123 C535.939364,551.35919 503.724976,577.066589 467.264202,594.738909 L495.693609,661.629123 C543.780882,638.846882 586.146225,605.036433 619.264202,563.057392 L561.408075,519.629123 Z" id="Path" opacity="0.300000012"></path>
                    <path d="M195.265475,573.121301 L151.923012,631.33651 C194.07665,660.602498 243.353551,680.907092 297.250161,689.121301 L305.923012,617.139978 C265.016308,610.562808 227.550174,595.159656 195.265475,573.121301 L195.265475,573.121301 Z" id="Path" opacity="0.5"></path>
                    <path d="M74.7733418,326.879557 L3.13623476,318.264078 C-1.66941215,373.020131 6.60871772,426.107115 25.4631211,474.264078 L91.7964495,445.730728 C77.7476931,408.919571 71.4789349,368.541142 74.7733418,326.879557 L74.7733418,326.879557 Z" id="Path" opacity="0.699999988"></path>
                    <path d="M200.303988,34.3708766 C152.216715,57.1734952 109.853775,90.9781648 76.7357982,132.950031 L134.591925,176.370877 C160.060636,144.619535 192.27262,118.918957 228.735798,101.273929 L200.303988,34.3708766 Z" id="Path" opacity="0.900000036"></path>
                    <path d="M646.152689,179.345977 L358.498379,491.340368 C353.131092,497.123041 344.074849,497.462915 338.271726,492.085198 L178.772526,350.738727 C172.945324,345.36342 172.584133,336.297711 177.953828,330.488523 L226.473716,276.173817 C231.843411,270.364629 240.899654,270.003061 246.700369,275.354264 L342.357991,361.682177 L580.358276,104.896769 C581.538164,103.643334 582.889016,102.630945 584.331369,101.907809 C611.444716,127.024715 628.213574,146.684358 646.152689,179.345977" id="Fill-3"></path>
                </g>
            </g>
        </g>
    </g>
</svg>